<svg width="54" height="40" viewBox="0 0 54 40" fill="none" xmlns="http://www.w3.org/2000/svg">
<g clip-path="url(#clip0_3_42)">
<path d="M16.3288 39.9714C7.37016 39.9714 0.0833435 32.902 0.0833435 24.2122C0.0833435 15.5223 7.37124 8.45294 16.3288 8.45294H16.3327C17.8416 5.92471 19.9818 3.83222 22.5433 2.3808C25.1048 0.929384 27.9995 0.168892 30.9436 0.173945C39.0902 0.173945 46.1513 6.06272 47.6728 13.9917C51.5731 16.6486 53.8804 20.9877 53.8804 25.7453C53.8804 33.5898 47.4992 39.9714 39.6556 39.9714C39.6556 39.9714 28.7887 41.0679 28.9744 29.5606H27.3284C27.3284 29.5606 28.4867 40.0852 16.5402 39.9997L16.3288 39.9714Z" fill="#F3F2F2"/>
<path d="M31.1894 27.2942C30.9164 27.7741 30.2927 28.7013 30.2619 28.7324C30.1874 28.807 30.0989 28.866 30.0015 28.9063C29.9041 28.9465 29.7998 28.9671 29.6944 28.9668L26.6146 28.9693C26.4861 28.9683 26.3597 28.9367 26.2457 28.8773C26.1318 28.8179 26.0335 28.7323 25.959 28.6276C25.6756 28.2243 25.3947 27.7741 25.1196 27.2952C24.2117 27.5271 21.5652 27.764 21.5652 27.764C21.5652 27.764 21.8322 23.7305 23.1619 22.2267C22.8588 20.753 22.7858 19.2327 23.0903 17.7891C23.6693 15.055 25.5489 12.9993 27.5886 10.9584C27.7391 10.8081 27.9432 10.7236 28.1559 10.7236C28.3686 10.7236 28.5727 10.8081 28.7232 10.9584C30.6806 12.9156 32.6418 15.0589 33.2176 17.7937C33.5242 19.2342 33.4523 20.7544 33.1485 22.2313C34.4789 23.7344 34.7462 27.7673 34.7462 27.7673C34.7462 27.7673 32.0972 27.5271 31.1894 27.2942Z" fill="#353431"/>
<path d="M29.5835 18.741C29.5835 18.465 29.5016 18.1951 29.3483 17.9656C29.195 17.7361 28.977 17.5572 28.722 17.4516C28.467 17.3459 28.1864 17.3183 27.9157 17.3722C27.645 17.426 27.3963 17.5589 27.2012 17.7541C27.006 17.9493 26.8731 18.198 26.8192 18.4687C26.7654 18.7395 26.793 19.0201 26.8986 19.2751C27.0043 19.5302 27.1831 19.7482 27.4126 19.9015C27.6421 20.0549 27.9119 20.1367 28.188 20.1367C28.5581 20.1367 28.913 19.9897 29.1747 19.7279C29.4365 19.4662 29.5835 19.1112 29.5835 18.741V18.741Z" fill="#F3F2F2"/>
</g>
<defs>
<clipPath id="clip0_3_42">
<rect width="54" height="40" fill="white"/>
</clipPath>
</defs>
</svg>
